<svg xmlns="http://www.w3.org/2000/svg" width="42.326" height="42.327" viewBox="0 0 42.326 42.327">
  <g id="Composant_26_1" data-name="Composant 26 – 1" transform="translate(3.5 3)">
    <path id="Icon_awesome-twitter-square" data-name="Icon awesome-twitter-square" d="M31.541,2.25H3.785A3.786,3.786,0,0,0,0,6.035V33.792a3.786,3.786,0,0,0,3.785,3.785H31.541a3.786,3.786,0,0,0,3.785-3.785V6.035A3.786,3.786,0,0,0,31.541,2.25ZM27.686,14.772c.016.221.016.449.016.67A14.614,14.614,0,0,1,12.987,30.156a14.646,14.646,0,0,1-7.941-2.318,10.9,10.9,0,0,0,1.246.063,10.369,10.369,0,0,0,6.419-2.208,5.178,5.178,0,0,1-4.834-3.588,5.574,5.574,0,0,0,2.334-.095,5.172,5.172,0,0,1-4.14-5.078V16.87a5.168,5.168,0,0,0,2.334.654,5.161,5.161,0,0,1-2.3-4.305,5.107,5.107,0,0,1,.7-2.61,14.684,14.684,0,0,0,10.661,5.409,5.183,5.183,0,0,1,8.824-4.723,10.134,10.134,0,0,0,3.28-1.246A5.158,5.158,0,0,1,27.3,12.9a10.292,10.292,0,0,0,2.981-.8A10.886,10.886,0,0,1,27.686,14.772Z" transform="translate(0 -1.75)" fill="none" stroke="#000" stroke-linecap="round" stroke-linejoin="round" stroke-width="7"/>
    <rect id="Rectangle_19" data-name="Rectangle 19" width="33" height="35" transform="translate(2)"/>
    <path id="Icon_awesome-twitter-square-2" data-name="Icon awesome-twitter-square" d="M31.541,2.25H3.785A3.786,3.786,0,0,0,0,6.035V33.792a3.786,3.786,0,0,0,3.785,3.785H31.541a3.786,3.786,0,0,0,3.785-3.785V6.035A3.786,3.786,0,0,0,31.541,2.25ZM27.686,14.772c.016.221.016.449.016.67A14.614,14.614,0,0,1,12.987,30.156a14.646,14.646,0,0,1-7.941-2.318,10.9,10.9,0,0,0,1.246.063,10.369,10.369,0,0,0,6.419-2.208,5.178,5.178,0,0,1-4.834-3.588,5.574,5.574,0,0,0,2.334-.095,5.172,5.172,0,0,1-4.14-5.078V16.87a5.168,5.168,0,0,0,2.334.654,5.161,5.161,0,0,1-2.3-4.305,5.107,5.107,0,0,1,.7-2.61,14.684,14.684,0,0,0,10.661,5.409,5.183,5.183,0,0,1,8.824-4.723,10.134,10.134,0,0,0,3.28-1.246A5.158,5.158,0,0,1,27.3,12.9a10.292,10.292,0,0,0,2.981-.8A10.886,10.886,0,0,1,27.686,14.772Z" transform="translate(0 -1.75)" fill="#fff"/>
  </g>
</svg>
