<svg xmlns="http://www.w3.org/2000/svg" width="42.596" height="42.596" viewBox="0 0 42.596 42.596">
  <g id="Composant_25_1" data-name="Composant 25 – 1" transform="translate(3.5 3.5)">
    <path id="Icon_metro-facebook" data-name="Icon metro-facebook" d="M32.234,1.928H8.5A5.933,5.933,0,0,0,2.571,7.861V31.591A5.933,5.933,0,0,0,8.5,37.524H20.369V21.951H15.919V17.5h4.449V14.164A5.562,5.562,0,0,1,25.93,8.6h5.562v4.449H25.93a1.112,1.112,0,0,0-1.112,1.112V17.5h6.118l-1.112,4.449H24.818V37.524h7.416a5.933,5.933,0,0,0,5.932-5.933V7.861a5.933,5.933,0,0,0-5.932-5.933Z" transform="translate(-2.571 -1.928)" fill="none" stroke="#000" stroke-width="7"/>
    <path id="Icon_metro-facebook-2" data-name="Icon metro-facebook" d="M32.234,1.928H8.5A5.933,5.933,0,0,0,2.571,7.861V31.591A5.933,5.933,0,0,0,8.5,37.524H20.369V21.951H15.919V17.5h4.449V14.164A5.562,5.562,0,0,1,25.93,8.6h5.562v4.449H25.93a1.112,1.112,0,0,0-1.112,1.112V17.5h6.118l-1.112,4.449H24.818V37.524h7.416a5.933,5.933,0,0,0,5.932-5.933V7.861a5.933,5.933,0,0,0-5.932-5.933Z" transform="translate(-2.571 -1.928)" fill="#fff"/>
  </g>
</svg>
