<svg xmlns="http://www.w3.org/2000/svg" xmlns:xlink="http://www.w3.org/1999/xlink" width="93.252" height="87.11" viewBox="0 0 93.252 87.11">
  <defs>
    <clipPath id="clip-path">
      <rect id="Rectangle_74" data-name="Rectangle 74" width="93.252" height="87.11" transform="translate(0 0)" fill="none"/>
    </clipPath>
  </defs>
  <g id="Groupe_77" data-name="Groupe 77" transform="translate(0 0.005)">
    <g id="Groupe_76" data-name="Groupe 76" transform="translate(0 -0.005)" clip-path="url(#clip-path)">
      <path id="Tracé_45" data-name="Tracé 45" d="M255.47,715.7h51.462a7.009,7.009,0,0,0,6.9-6.9V659.967a1.5,1.5,0,0,0-1.493-1.493h-62.28a1.5,1.5,0,0,0-1.493,1.493v39.718a1.493,1.493,0,0,0,2.986,0V661.46h59.294V708.8a3.991,3.991,0,0,1-3.916,3.919H255.47a3.991,3.991,0,0,1-3.916-3.919,1.493,1.493,0,0,0-2.986,0,7.009,7.009,0,0,0,6.9,6.9" transform="translate(-237.287 -628.59)" fill="#fff"/>
      <path id="Tracé_46" data-name="Tracé 46" d="M2.571,672.725l11.28-11.743a1.494,1.494,0,0,0-1.077-2.529h-.033a1.481,1.481,0,0,0-1.044.458L.415,670.657a1.494,1.494,0,1,0,2.156,2.068" transform="translate(0 -628.57)" fill="#fff"/>
      <path id="Tracé_47" data-name="Tracé 47" d="M1632.579,672.852a1.494,1.494,0,1,0,2.154-2.07l-11.279-11.742a1.494,1.494,0,1,0-2.156,2.068Z" transform="translate(-1547.321 -628.695)" fill="#fff"/>
      <path id="Tracé_48" data-name="Tracé 48" d="M745.208,936.947a1.491,1.491,0,0,0,.882-.289,10.634,10.634,0,0,0,4.162-8.618,10.765,10.765,0,1,0-21.529,0,1.493,1.493,0,0,0,2.986,0,7.779,7.779,0,1,1,15.558,0,7.546,7.546,0,0,1-2.942,6.213,1.5,1.5,0,0,0-.322,2.089,1.476,1.476,0,0,0,1.206.606" transform="translate(-695.651 -875.644)" fill="#fff"/>
      <path id="Tracé_49" data-name="Tracé 49" d="M941.079,1287.874a1.493,1.493,0,0,0-1.7-2.455,9.541,9.541,0,0,1-1.415.754l-.2.094a11.4,11.4,0,0,0-3.152,1.943,5.052,5.052,0,0,0-1.59,3.844,1.493,1.493,0,0,0,2.986,0,2.228,2.228,0,0,1,.775-1.789,9.107,9.107,0,0,1,2.245-1.29,14.808,14.808,0,0,0,2.052-1.1" transform="translate(-890.676 -1226.832)" fill="#fff"/>
      <path id="Tracé_50" data-name="Tracé 50" d="M934.513,1586.384a1.709,1.709,0,0,0-1.493,1.724,1.493,1.493,0,0,0,2.986,0v-.463a1.31,1.31,0,0,0-1.493-1.261" transform="translate(-890.676 -1514.388)" fill="#fff"/>
      <path id="Tracé_51" data-name="Tracé 51" d="M1101.624,1.855a6.774,6.774,0,0,0-9.567.242L1085.8,8.681c-1.639-.318-7.284-4.114-9.851-6.489L1074.8,1.129l-16.284,26.412h3.029L1075.379,5.1c2.475,2.013,7.193,5.4,9.834,6.07l6.56,9.514-9.96,6.86h4.546l9.407-6.479-1.12-1.1c-2.5-2.444-6.579-7.889-6.979-9.51l6.259-6.584A4.189,4.189,0,0,1,1100,9.645l-1.876,1.974,1.868,1.776,1.876-1.974a6.774,6.774,0,0,0-.242-9.566" transform="translate(-1010.473 0.005)" fill="#fff"/>
      <path id="Tracé_52" data-name="Tracé 52" d="M226.425,201.08h2.831l-2.908-6.411a2.261,2.261,0,0,1,1.123-2.99l15.685-7.116a2.262,2.262,0,0,1,2.99,1.123l6.984,15.393h2.831l-7.467-16.458a4.842,4.842,0,0,0-6.4-2.406l-15.685,7.116a4.842,4.842,0,0,0-2.406,6.4Z" transform="translate(-213.422 -173.534)" fill="#fff"/>
      <path id="Tracé_53" data-name="Tracé 53" d="M331.541,421.447a1.719,1.719,0,1,1-2.275-.855,1.719,1.719,0,0,1,2.275.855" transform="translate(-313.359 -401.357)" fill="#fff"/>
    </g>
  </g>
</svg>
