<svg xmlns="http://www.w3.org/2000/svg" xmlns:xlink="http://www.w3.org/1999/xlink" width="76.647" height="93.856" viewBox="0 0 76.647 93.856">
  <defs>
    <clipPath id="clip-path">
      <rect id="Rectangle_60" data-name="Rectangle 60" width="76.647" height="93.856" fill="#fff"/>
    </clipPath>
  </defs>
  <g id="Groupe_34" data-name="Groupe 34" clip-path="url(#clip-path)">
    <path id="Tracé_23" data-name="Tracé 23" d="M103.752,52.68a7.115,7.115,0,0,1-1.551-1.047,1.451,1.451,0,0,1,.306-.861A1.717,1.717,0,0,0,99.931,48.5a4.884,4.884,0,0,0-1.16,3.39,3.7,3.7,0,0,0,1.338,2.6,10.975,10.975,0,0,0,2.079,1.253c2.719,1.389,3.921,2.323,3.227,4.872-.683,2.517-5.139,4.36-9.448,6.14-4.922,2.032-11.419,5.6-14.157,9.9a66.476,66.476,0,0,1-7.633-3.933A39.549,39.549,0,0,1,56.6,44.241c-.83-7.7.7-15.611,2.176-23.268.562-2.9,1.144-5.9,1.594-8.878.128-.857.244-1.722.322-2.591a23.251,23.251,0,0,1,10.3,5.535,23.02,23.02,0,0,1,5.764,8.715c2.424,6.757,9.181,7.978,15.146,9.053,1.381.252,2.784.59,4.15.822.432.073.583.182.4.714a26.525,26.525,0,0,1-1.261,2.676c-1.191,2.191-2.312,4.259-.718,5.6a11.18,11.18,0,0,0,3.033,1.5c.908.256.706.865.706.865a30.227,30.227,0,0,1-6.26,5.484,1.717,1.717,0,0,0,1.73,2.967,33.667,33.667,0,0,0,7.261-6.369,3.223,3.223,0,0,0,.481-3.312,7.13,7.13,0,0,0-.721-1.679,14,14,0,0,0-3.351-1.769c.229-.5.586-1.164.857-1.656.911-1.683,1.773-3.27,1.695-4.647a3.872,3.872,0,0,0-2.54-3.6,44.363,44.363,0,0,0-4.848-.985c-5.779-1.043-10.771-1.943-12.524-6.834A26.545,26.545,0,0,0,73.2,12.413,27.093,27.093,0,0,0,60.765,5.978,12.707,12.707,0,0,0,59.458.936,1.716,1.716,0,1,0,56.4,2.5c1.385,2.715,1.024,6.113.574,9.084-.442,2.9-1.016,5.872-1.571,8.738-1.528,7.9-3.107,16.077-2.219,24.288A43.028,43.028,0,0,0,72.292,75.6c4.836,3.166,9.148,3.972,13.071,7.389,3.035,2.653,3.754,5.477.275,7.711a1.717,1.717,0,0,0,1.854,2.89c5.459-3.5,4.865-9.053.128-13.191a22.809,22.809,0,0,0-3-2.2c2.215-3.813,8.044-6.365,12.656-8.269,5.31-2.191,10.325-4.263,11.454-8.409,1.5-5.519-2.715-7.676-4.98-8.835" transform="translate(-32.4 0)" fill="#fff"/>
    <path id="Tracé_24" data-name="Tracé 24" d="M90.907,86.233a1.717,1.717,0,0,1,1.33-2.032,7.573,7.573,0,0,0,6-5.5,1.717,1.717,0,1,1,3.36.71,10.9,10.9,0,0,1-8.66,8.151,1.716,1.716,0,0,1-2.032-1.33" transform="translate(-55.625 -47.342)" fill="#fff"/>
    <path id="Tracé_25" data-name="Tracé 25" d="M73.634,68.449a1.718,1.718,0,0,1-.8-2.295c1.752-3.611,5.118-8.36,8.369-10.252a1.717,1.717,0,1,1,1.727,2.968c-2.181,1.269-5.193,5.045-7.006,8.783a1.718,1.718,0,0,1-2.295.8" transform="translate(-44.482 -34.077)" fill="#fff"/>
    <path id="Tracé_26" data-name="Tracé 26" d="M60.79,99.349C52.871,98.334,27.72,86.576,27.2,66.68c-.282-10.865,2.046-17.621,4.511-24.775a83.815,83.815,0,0,0,4.809-19.479,1.717,1.717,0,0,1,3.413.384,86.66,86.66,0,0,1-4.975,20.214C32.6,49.875,30.372,56.347,30.638,66.59c.455,17.562,23.618,28.458,30.589,29.351a1.647,1.647,0,0,1,1.485,1.922c-.494,1.85-1.847,1.495-1.922,1.486" transform="translate(-16.639 -12.794)" fill="#fff"/>
    <path id="Tracé_27" data-name="Tracé 27" d="M1.719,93.015A1.756,1.756,0,0,1,0,91.242C.036,85.38.486,80.856,5.139,73.928c1.52-2.264,2.91-3.9,4.069-5.9a9.836,9.836,0,0,0,1.6-5.838,1.718,1.718,0,1,1,3.417-.357,13.129,13.129,0,0,1-2.043,7.91c-1.27,2.193-2.873,4.112-4.19,6.072C3.618,82.325,3.465,86.2,3.434,91.262a1.755,1.755,0,0,1-1.715,1.753" transform="translate(0 -36.908)" fill="#fff"/>
  </g>
</svg>
