<svg id="Groupe_83" data-name="Groupe 83" xmlns="http://www.w3.org/2000/svg" xmlns:xlink="http://www.w3.org/1999/xlink" width="86.692" height="86.692" viewBox="0 0 86.692 86.692">
  <defs>
    <clipPath id="clip-path">
      <rect id="Rectangle_78" data-name="Rectangle 78" width="86.692" height="86.692" fill="#fff"/>
    </clipPath>
  </defs>
  <g id="Groupe_82" data-name="Groupe 82" clip-path="url(#clip-path)">
    <path id="Tracé_76" data-name="Tracé 76" d="M43.346,0A43.346,43.346,0,1,0,86.692,43.346,43.4,43.4,0,0,0,43.346,0m0,83.885a40.54,40.54,0,1,1,40.541-40.54,40.586,40.586,0,0,1-40.541,40.54" fill="#fff"/>
    <path id="Tracé_77" data-name="Tracé 77" d="M149.462,47.765a8.806,8.806,0,1,0-8.805-8.806,8.816,8.816,0,0,0,8.805,8.806m0-14.806a6,6,0,1,1-6,6,6.007,6.007,0,0,1,6-6" transform="translate(-106.117 -22.748)" fill="#fff"/>
    <path id="Tracé_78" data-name="Tracé 78" d="M114.613,88.578l-.055-.214a5.3,5.3,0,0,0-6.44-3.824l-23.134,5.9-23.133-5.9a5.3,5.3,0,0,0-6.443,3.829l-.052.208a5.3,5.3,0,0,0,3.823,6.44l19.347,4.934v9.831c-.022.049-.044.1-.064.151l-9.933,25.652a5.4,5.4,0,0,0,4.786,7.352c.085,0,.168.005.252.005a5.4,5.4,0,0,0,5.045-3.452l6.372-16.455,6.373,16.453a5.407,5.407,0,0,0,10.084-3.905l-9.932-25.644c-.019-.051-.041-.1-.066-.156V99.952l19.345-4.933a5.3,5.3,0,0,0,3.824-6.441m-2.993,2.579a2.474,2.474,0,0,1-1.525,1.143l-20.4,5.2a1.4,1.4,0,0,0-1.057,1.359v11.25a1.4,1.4,0,0,0,.144.618l.108.218L98.823,136.6a2.6,2.6,0,0,1-4.849,1.879l-7.682-19.833a1.4,1.4,0,0,0-2.617,0l-7.68,19.835a2.6,2.6,0,0,1-4.849-1.88l9.93-25.645.107-.211a1.4,1.4,0,0,0,.149-.631V98.862A1.4,1.4,0,0,0,80.275,97.5l-20.4-5.2a2.5,2.5,0,0,1-1.8-3.032l.052-.207a2.5,2.5,0,0,1,2.419-1.877,2.461,2.461,0,0,1,.611.077l23.479,5.987a1.41,1.41,0,0,0,.693,0l23.482-5.988a2.531,2.531,0,0,1,3.026,1.795l.054.212s0,0,0,0a2.474,2.474,0,0,1-.273,1.886" transform="translate(-41.638 -63.656)" fill="#fff"/>
  </g>
</svg>
