<svg xmlns="http://www.w3.org/2000/svg" xmlns:xlink="http://www.w3.org/1999/xlink" width="95.834" height="96.981" viewBox="0 0 95.834 96.981">
  <defs>
    <clipPath id="clip-path">
      <rect id="Rectangle_80" data-name="Rectangle 80" width="95.834" height="96.981" transform="translate(0 0)" fill="none"/>
    </clipPath>
  </defs>
  <g id="Groupe_87" data-name="Groupe 87" transform="translate(0 0)">
    <g id="Groupe_86" data-name="Groupe 86" clip-path="url(#clip-path)">
      <path id="Tracé_83" data-name="Tracé 83" d="M24.914,86.959c2.545,1.249,15.451,7.57,19.588,9.263a10.345,10.345,0,0,0,4.076.756,16.841,16.841,0,0,0,6.73-1.519L92.7,74.775A6.1,6.1,0,0,0,95.078,66.5h0a6.119,6.119,0,0,0-8.222-2.4L66.736,73.624V72.33a6.1,6.1,0,0,0-6.088-6.086H40.153L29.319,61.783h-15.7v-5.91H0V92.9H13.617V86.882h11.14ZM11.293,90.576H2.324V58.191h8.969ZM13.617,64.1H28.86L39.7,68.561H60.65a3.763,3.763,0,1,1,0,7.526H40.913v2.325H62.04L87.95,66.147a3.762,3.762,0,0,1,5.1,1.48,3.769,3.769,0,0,1-1.471,5.116l-.363-.657h0l.363.657-37.3,20.633a14.9,14.9,0,0,1-5.7,1.28,8.44,8.44,0,0,1-3.2-.583c-3.689-1.511-14.874-6.96-19.512-9.233l-.576-.284H13.617Z" fill="#fff"/>
      <path id="Tracé_84" data-name="Tracé 84" d="M82.119,29.5A29.507,29.507,0,1,0,52.611,59.013,29.54,29.54,0,0,0,82.119,29.5M52.609,56.69H52.6a27.184,27.184,0,0,1,0-54.368h.005v0a27.183,27.183,0,0,1,0,54.367" fill="#fff"/>
      <path id="Tracé_85" data-name="Tracé 85" d="M63.55,27.758H54.527V18.57a1.75,1.75,0,0,0-3.5,0v9.188H41.669a1.752,1.752,0,0,0-1.75,1.75h0a1.752,1.752,0,0,0,1.75,1.75h9.356v9.188a1.753,1.753,0,0,0,1.75,1.75h0a1.753,1.753,0,0,0,1.75-1.75V31.258H63.55a1.75,1.75,0,1,0,0-3.5" fill="#fff"/>
    </g>
  </g>
</svg>
