<svg xmlns="http://www.w3.org/2000/svg" xmlns:xlink="http://www.w3.org/1999/xlink" width="111.642" height="108.084" viewBox="0 0 111.642 108.084">
  <defs>
    <clipPath id="clip-path">
      <rect id="Rectangle_64" data-name="Rectangle 64" width="111.642" height="108.084" transform="translate(0 0)" fill="#fff"/>
    </clipPath>
  </defs>
  <g id="Groupe_43" data-name="Groupe 43" transform="translate(0 0.004)">
    <g id="Groupe_42" data-name="Groupe 42" transform="translate(0 -0.004)" clip-path="url(#clip-path)">
      <path id="Tracé_37" data-name="Tracé 37" d="M111.559,101.5a.894.894,0,0,0-1.188-.435c-.112.052-11.381,5.229-19.621,5.229a46.132,46.132,0,0,1-11.664-1.816c-1.866-.467-3.628-.907-5.456-1.214l-1.016-.17-.073,2.867c-10.472-.225-14.992-.287-16.668-.3-.1-2.251-.038-4.241.045-5.67l1.366.035c1.869.045,5.395.126,12.038.27a39.163,39.163,0,0,1,9.331,1.557,47.567,47.567,0,0,0,12.1,1.869c8.646,0,18.643-4.973,19.064-5.184l.531-.267-.04-.592c-.12-1.766-1.27-5.225-4.772-5.684l-.613-.079c-3.909-.5-14.292-1.836-18.952-5.651a16.286,16.286,0,0,1-3.089-3.707.894.894,0,0,0-.076-1.673,4.719,4.719,0,0,0-1.059-.211c-.44-.779-.864-1.585-1.266-2.394.064.016.129.033.192.054a.895.895,0,0,0,.548-1.7,4.782,4.782,0,0,0-1.638-.224c-.362-.786-.7-1.555-1.011-2.286a2.859,2.859,0,0,1,.438.1.895.895,0,0,0,.549-1.7,4.8,4.8,0,0,0-1.737-.221c-.836-2.09-1.336-3.553-1.351-3.6l-.24-.708-8.265,1.228V39.62l1.972,4.6,16.326-5.607L78.408,17.786l-.041-.1-.006-.013a7.309,7.309,0,0,0-1.163-1.61,10.823,10.823,0,0,0-3.823-2.639C67.159,10.819,57.551,6.834,57.481,6.8a1.33,1.33,0,0,0-.176-.057c-.054-.527-.36-1.521-1.876-3.1A17.188,17.188,0,0,0,51.163.386,2.531,2.531,0,0,0,49.718,0H43.037c-.027,0-.053,0-.08,0s-.053,0-.08,0H36.2a2.532,2.532,0,0,0-1.446.39,17.182,17.182,0,0,0-4.266,3.257C28.745,5.46,28.6,6.5,28.6,6.951c-1.854.756-10.253,4.186-15.71,6.476a10.824,10.824,0,0,0-3.823,2.639A7.379,7.379,0,0,0,7.9,17.675L0,38.614l16.326,5.607,1.971-4.6V91.135H55.36a35.322,35.322,0,0,0-1.011,6.238c-.006.027-.011.054-.015.082a54.694,54.694,0,0,0-.2,9.14l.049.842h.844c.031,0,3.36,0,18.371.328l.891.019.065-2.573c1.414.277,2.825.63,4.3,1a47.555,47.555,0,0,0,12.1,1.869c8.631,0,19.9-5.174,20.373-5.394a.9.9,0,0,0,.436-1.188M75.023,69.975c.215.6.562,1.547,1.018,2.7a11.4,11.4,0,0,0-4.033,2.791.894.894,0,0,0,1.331,1.195,9.927,9.927,0,0,1,3.377-2.324c.32.766.674,1.583,1.057,2.424a11.365,11.365,0,0,0-4.1,2.815A.895.895,0,1,0,75,80.77a9.724,9.724,0,0,1,3.539-2.379c.4.827.827,1.661,1.273,2.478a11,11,0,0,0-4.559,2.96.895.895,0,1,0,1.331,1.2,8.936,8.936,0,0,1,4.158-2.532,20.307,20.307,0,0,0,4.094,5.15c5.057,4.14,15.428,5.472,19.857,6.041l.607.079c2.225.292,2.922,2.4,3.133,3.447-2.245,1.049-10.606,4.718-17.684,4.718a46.105,46.105,0,0,1-11.664-1.816,40.573,40.573,0,0,0-9.74-1.61c-8.552-.185-11.916-.265-13.231-.3A31.951,31.951,0,0,1,57.2,91.135c.138-.573.278-1.138.416-1.69q.119-.478.235-.946a29.04,29.04,0,0,0,.842-4.4,96.468,96.468,0,0,0-.546-11.614l7.185-1.068,2.636-.392ZM51.677,3.822c.267.2.555.438.861.705A7.775,7.775,0,0,1,54.675,7a24.491,24.491,0,0,1-3.482,5.458l-3.506-2.8c.53-.632,1.225-1.489,1.9-2.414a17.831,17.831,0,0,0,2.087-3.421m-8.8-1.19c.027,0,.053,0,.08,0s.053,0,.08,0h6.289a26.676,26.676,0,0,1-4.335,6.12,5.56,5.56,0,0,0-2.034,1.878,5.554,5.554,0,0,0-2.034-1.878,26.671,26.671,0,0,1-4.336-6.12Zm-9.5,1.895c.306-.267.593-.5.86-.705a17.825,17.825,0,0,0,2.088,3.421c.678.923,1.373,1.781,1.9,2.413l-3.507,2.8a24.643,24.643,0,0,1-3.482-5.447,7.636,7.636,0,0,1,2.138-2.484M43.307,88.5H20.933V39.615c0-5.742-3.079-11.868-3.21-12.126a1.318,1.318,0,0,0-2.349,1.2,33.73,33.73,0,0,1,2.2,5.936l-2.7,6.312L3.425,37l6.868-18.21a7.411,7.411,0,0,1,3.615-2.935c5.422-2.275,13.545-5.593,15.577-6.421q.467.842,1.185,1.912c1.046,1.558,2.2,3.046,2.8,3.794l.822,1.032,5.927-4.736c1.214,1.075,1.415,3.051,1.42,4.2,0,.016,0,.031,0,.047v12.1a1.318,1.318,0,1,0,2.636,0v-12.1c0-1.139.19-3.155,1.418-4.246l5.927,4.737.823-1.032c.6-.749,1.755-2.237,2.8-3.794.53-.79.956-1.483,1.28-2.086l.1.043c3,1.246,10.549,4.38,15.726,6.553a7.369,7.369,0,0,1,3.615,2.933L82.838,37,71.4,40.933,68.692,34.62a33.732,33.732,0,0,1,2.2-5.936,1.318,1.318,0,0,0-2.349-1.2c-.131.257-3.211,6.371-3.211,12.126V69.607L56.2,70.964l.086.849c.009.086.878,8.707.625,12.152a30.837,30.837,0,0,1-.9,4.533Z" transform="translate(0 0.004)" fill="#fff"/>
      <path id="Tracé_38" data-name="Tracé 38" d="M838.362,419.563h2.785a1.318,1.318,0,1,0,0-2.636h-2.785a1.318,1.318,0,1,0,0,2.636" transform="translate(-782.483 -389.75)" fill="#fff"/>
    </g>
  </g>
</svg>
