<svg id="Groupe_79" data-name="Groupe 79" xmlns="http://www.w3.org/2000/svg" xmlns:xlink="http://www.w3.org/1999/xlink" width="100.333" height="63.124" viewBox="0 0 100.333 63.124">
  <defs>
    <clipPath id="clip-path">
      <rect id="Rectangle_75" data-name="Rectangle 75" width="100.333" height="63.124" fill="none"/>
    </clipPath>
  </defs>
  <g id="Groupe_78" data-name="Groupe 78" clip-path="url(#clip-path)">
    <path id="Tracé_54" data-name="Tracé 54" d="M181.083,9.385a1.466,1.466,0,0,1-1.467-1.467V4.986a1.958,1.958,0,0,0-1.955-1.955H162.344a1.467,1.467,0,1,1,0-2.933h15.317a4.894,4.894,0,0,1,4.889,4.889V7.919a1.466,1.466,0,0,1-1.467,1.467" transform="translate(-82.231 -0.05)" fill="#fff"/>
    <path id="Tracé_55" data-name="Tracé 55" d="M101.667,44.294H78.039a1.467,1.467,0,0,1,0-2.933h23.629a1.467,1.467,0,0,1,0,2.933" transform="translate(-39.139 -21.141)" fill="#fff"/>
    <path id="Tracé_56" data-name="Tracé 56" d="M127.707,15.249a1.466,1.466,0,0,1-1.467-1.467V4.495a1.467,1.467,0,1,1,2.933,0v9.288a1.466,1.466,0,0,1-1.467,1.467" transform="translate(-64.526 -1.548)" fill="#fff"/>
    <path id="Tracé_57" data-name="Tracé 57" d="M131.373,93.3a1.466,1.466,0,0,1-1.467-1.467V66.25a4.894,4.894,0,0,1,4.889-4.889h9.126a1.467,1.467,0,0,1,0,2.933h-9.126a1.957,1.957,0,0,0-1.955,1.955V91.834a1.466,1.466,0,0,1-1.467,1.467" transform="translate(-66.4 -31.364)" fill="#fff"/>
    <path id="Tracé_58" data-name="Tracé 58" d="M191.705,65.294h-7.333a1.467,1.467,0,1,1,0-2.933h7.333a1.467,1.467,0,1,1,0,2.933" transform="translate(-93.491 -31.875)" fill="#fff"/>
    <path id="Tracé_59" data-name="Tracé 59" d="M112.72,100.628H98.707a1.467,1.467,0,1,1,0-2.933H112.72a1.467,1.467,0,1,1,0,2.933" transform="translate(-49.703 -49.936)" fill="#fff"/>
    <path id="Tracé_60" data-name="Tracé 60" d="M43.01,61.386c0,2.068-1.683,1.775-3.751,1.775H3.751A3.755,3.755,0,0,1,0,59.41V3.849A3.755,3.755,0,0,1,3.751.1h38.12c.891,0,1.824.512,1.824,1.4s-3.167,1.614-4.058,1.614L3.751,3.326a.523.523,0,0,0-.523.523V59.41a.523.523,0,0,0,.523.523H39.259c.288,0-1.659,3.061-1.174,1.173" transform="translate(0 -0.05)" fill="#fff"/>
    <path id="Tracé_61" data-name="Tracé 61" d="M21.543,59.766H2.344a1.614,1.614,0,1,1,0-3.228h19.2a1.614,1.614,0,0,1,0,3.228" transform="translate(-0.373 -28.899)" fill="#fff"/>
    <path id="Tracé_62" data-name="Tracé 62" d="M40.52,108.483a1.614,1.614,0,0,1-1.614-1.614V95.327a1.614,1.614,0,1,1,3.227,0v11.542a1.614,1.614,0,0,1-1.614,1.614" transform="translate(-19.886 -47.901)" fill="#fff"/>
    <path id="Tracé_63" data-name="Tracé 63" d="M41.617,51.3A1.614,1.614,0,0,1,40,49.686V30.861a1.614,1.614,0,1,1,3.227,0V49.686A1.614,1.614,0,0,1,41.617,51.3" transform="translate(-20.447 -14.949)" fill="#fff"/>
    <path id="Tracé_64" data-name="Tracé 64" d="M78.839,33.3V2.981H118.3a1.5,1.5,0,0,0,1.493-1.176A1.468,1.468,0,0,0,118.355.048H80.795c-2.7,0-4.889-.557-4.889,2.143V33.3a1.467,1.467,0,0,0,2.933,0" transform="translate(-38.799 0)" fill="#fff"/>
    <path id="Tracé_65" data-name="Tracé 65" d="M137.375,42.125a1.5,1.5,0,0,0-1.176,1.493V79.25a1.956,1.956,0,0,1-1.955,1.955h-55.4V70.945a1.467,1.467,0,0,0-2.933,0V82.1a2.528,2.528,0,0,0,2.528,2.528h55.81a4.888,4.888,0,0,0,4.889-4.889V43.564a1.468,1.468,0,0,0-1.757-1.439" transform="translate(-38.799 -21.517)" fill="#fff"/>
  </g>
</svg>
