<svg id="Groupe_37" data-name="Groupe 37" xmlns="http://www.w3.org/2000/svg" xmlns:xlink="http://www.w3.org/1999/xlink" width="106.607" height="99.063" viewBox="0 0 106.607 99.063">
  <defs>
    <clipPath id="clip-path">
      <rect id="Rectangle_61" data-name="Rectangle 61" width="106.607" height="99.063" fill="#fff"/>
    </clipPath>
  </defs>
  <g id="Groupe_36" data-name="Groupe 36" clip-path="url(#clip-path)">
    <path id="Tracé_28" data-name="Tracé 28" d="M111.914,339.6a1.765,1.765,0,1,0-1.765-1.765,1.767,1.767,0,0,0,1.765,1.765" transform="translate(-90.861 -277.221)" fill="#fff"/>
    <path id="Tracé_29" data-name="Tracé 29" d="M215.79,339.6a1.765,1.765,0,1,0-1.765-1.765,1.767,1.767,0,0,0,1.765,1.765" transform="translate(-176.547 -277.221)" fill="#fff"/>
    <path id="Tracé_30" data-name="Tracé 30" d="M59.419,288.354a3.632,3.632,0,0,0-2.76-1.268H50.995l.946-8.944a3.636,3.636,0,0,0-3.608-4.087H11.963a3.636,3.636,0,0,0-3.611,4.067l.948,8.965H3.636a3.636,3.636,0,0,0-3.594,4.189l3.63,23.591a3.08,3.08,0,0,0,3.061,2.626h3.4l-1.571,6.285a1.086,1.086,0,0,0,2.107.527l1.7-6.812H47.924l1.7,6.812a1.086,1.086,0,0,0,2.107-.527l-1.571-6.285h3.4a3.081,3.081,0,0,0,3.061-2.626l3.629-23.592a3.632,3.632,0,0,0-.834-2.921M11.686,301.891a.337.337,0,0,1,.019-.106.353.353,0,0,1,.061-.114.347.347,0,0,1,.058-.056q.287-.219.584-.426h0l.078-.052q.235-.161.476-.316c.075-.048.151-.094.226-.14q.173-.107.349-.21.126-.073.253-.145c.116-.065.233-.128.35-.19.083-.044.166-.089.251-.132.143-.073.289-.143.434-.213q.159-.076.319-.148c.146-.066.292-.131.44-.194.1-.041.2-.081.3-.12s.22-.088.33-.129.219-.082.33-.121.2-.07.3-.1c.119-.04.238-.081.358-.118.082-.026.165-.05.247-.074.314-.094.63-.182.951-.261l.028-.007c.162-.039.325-.075.488-.111l.165-.036q.246-.051.493-.1l.147-.026c.175-.03.351-.059.528-.085l.032,0q.608-.088,1.226-.14l.018,0c.549-.045,1.1-.069,1.659-.069H37.11c.564,0,1.125.026,1.682.073h0c.589.049,1.17.125,1.744.223l.153.026c.139.025.277.053.414.081l.27.056q.18.039.358.081l.329.081c.1.027.208.053.312.081.131.036.261.074.39.112.084.025.168.048.252.074q.312.1.62.2c.062.022.122.045.184.068.147.053.293.107.438.163.1.037.189.076.284.115s.213.088.318.133.217.1.324.144l.251.117c.121.057.242.115.362.176l.165.085a17.12,17.12,0,0,1,1.92,1.151l.012.008.2.142a1.272,1.272,0,0,1,.3.306,1.238,1.238,0,0,1,.216.7v3.951a.34.34,0,0,1-.339.339H12.026a.34.34,0,0,1-.339-.339Zm-.821-25.17a1.446,1.446,0,0,1,1.1-.5h36.37a1.465,1.465,0,0,1,1.451,1.666l-1.056,9.983-1.119,10.583-.043-.023a19.944,19.944,0,0,0-1.846-.911l-.249-.1q-.353-.147-.712-.28c-.087-.032-.173-.066-.26-.1q-.458-.164-.926-.308c-.076-.023-.153-.044-.23-.066q-.381-.112-.768-.211l-.284-.07c-.315-.076-.632-.146-.952-.208l-.036-.008c-.357-.068-.717-.126-1.079-.178l-.128-.017q-.508-.069-1.022-.114l-.05-.006a5.39,5.39,0,0,0-.931-.084H22.2a5.374,5.374,0,0,0-.923.083l-.025,0c-.353.03-.7.07-1.054.117l-.146.02c-.353.05-.7.106-1.052.172l-.017,0q-.547.1-1.084.236l-.108.028q-.449.112-.89.244l-.242.073q-.414.128-.821.273l-.169.059q-.479.175-.947.373c-.067.028-.133.059-.2.088q-.366.159-.724.332l-.269.132q-.357.179-.706.372c-.046.025-.094.048-.14.074L11.6,288.172h0l-1.089-10.3a1.445,1.445,0,0,1,.355-1.151m47.242,14.223-3.63,23.591a.92.92,0,0,1-.914.785H6.733a.92.92,0,0,1-.915-.785l-3.63-23.591a1.465,1.465,0,0,1,1.447-1.687H9.53l1.112,10.511a1.218,1.218,0,0,1-.135.12,2.535,2.535,0,0,0-.993,2v4.4a2.514,2.514,0,0,0,2.511,2.511H48.27a2.514,2.514,0,0,0,2.511-2.511v-3.951a3.373,3.373,0,0,0-.023-.386c0-.042-.014-.083-.02-.124-.013-.085-.027-.17-.046-.254-.011-.048-.026-.1-.039-.143-.021-.076-.043-.151-.07-.225-.017-.049-.036-.1-.056-.144q-.043-.106-.093-.21c-.023-.047-.046-.092-.071-.138-.037-.068-.077-.134-.119-.2-.027-.042-.053-.085-.082-.126-.047-.068-.1-.133-.151-.2-.028-.035-.055-.071-.085-.105-.066-.075-.137-.147-.21-.216-.02-.019-.038-.04-.059-.06l-.009-.009,1.116-10.549h5.894a1.464,1.464,0,0,1,1.447,1.687" transform="translate(0 -226.064)" fill="#fff"/>
    <path id="Tracé_31" data-name="Tracé 31" d="M362.361,89.288h-11.01l8.326-83.257,2.676.334a1.086,1.086,0,0,0,.269-2.155l-2.729-.341.173-1.729a1.086,1.086,0,1,0-2.161-.216L357.737,3.6,329.008.009a1.086,1.086,0,1,0-.269,2.155l4.119.515v7.849H317.14a1.61,1.61,0,0,0-1.608,1.608V27.084a1.61,1.61,0,0,0,1.608,1.608h33.607a1.61,1.61,0,0,0,1.608-1.608V12.136a1.61,1.61,0,0,0-1.608-1.608H335.03V2.95l22.492,2.811-8.353,83.526H337.941a4.53,4.53,0,0,0-4.525,4.525v.127a1.993,1.993,0,0,0,1.991,1.991H364.9a1.993,1.993,0,0,0,1.991-1.991v-.127a4.53,4.53,0,0,0-4.525-4.525M350.183,26.52H317.7V12.7h32.479ZM335.589,93.759a2.356,2.356,0,0,1,2.352-2.3h24.42a2.356,2.356,0,0,1,2.352,2.3Z" transform="translate(-260.279 0)" fill="#fff"/>
  </g>
</svg>
