<svg xmlns="http://www.w3.org/2000/svg" xmlns:xlink="http://www.w3.org/1999/xlink" width="82.683" height="83.856" viewBox="0 0 82.683 83.856">
  <defs>
    <clipPath id="clip-path">
      <rect id="Rectangle_62" data-name="Rectangle 62" width="82.683" height="83.856" fill="#fff"/>
    </clipPath>
  </defs>
  <g id="Groupe_38" data-name="Groupe 38" clip-path="url(#clip-path)">
    <path id="Tracé_32" data-name="Tracé 32" d="M82.655,51.855a3.582,3.582,0,0,0-5-3.287L41.759,64.074a3.582,3.582,0,0,0-.418.218,3.6,3.6,0,0,0-.418-.218L5.031,48.569a3.582,3.582,0,0,0-5,3.287L0,105.137a3.582,3.582,0,0,0,2.162,3.29L38.27,123.974a7.672,7.672,0,0,0,6.063,0l36.189-15.549a3.582,3.582,0,0,0,2.162-3.29Zm-79.044,0L39.5,67.363v53.262l-1.9-.806-.006.014L3.582,105.138Zm39.8,68.7-.234.095V67.363L79.072,51.857l.028,53.281Z" transform="translate(0 -40.744)" fill="#fff"/>
    <path id="Tracé_33" data-name="Tracé 33" d="M140.488,10.564l5.092,2.174,20.951-9.3A1.792,1.792,0,1,0,165.073.162l-19.462,8.7L126.075.157a1.792,1.792,0,0,0-2.519,1.7V1.87a1.792,1.792,0,0,0,1.057,1.567Z" transform="translate(-104.279 0)" fill="#fff"/>
    <path id="Tracé_34" data-name="Tracé 34" d="M98.889,33.8,70.717,21.26a1.792,1.792,0,0,0-2.52,1.679v0a1.792,1.792,0,0,0,1.064,1.6l29.6,13.145L128.44,24.655a1.792,1.792,0,0,0,1.069-1.6v-.006a1.792,1.792,0,0,0-2.516-1.681Z" transform="translate(-57.558 -17.811)" fill="#fff"/>
  </g>
</svg>
