<svg id="Groupe_33" data-name="Groupe 33" xmlns="http://www.w3.org/2000/svg" xmlns:xlink="http://www.w3.org/1999/xlink" width="84.21" height="88.091" viewBox="0 0 84.21 88.091">
  <defs>
    <clipPath id="clip-path">
      <rect id="Rectangle_59" data-name="Rectangle 59" width="84.21" height="88.091" fill="#fff"/>
    </clipPath>
  </defs>
  <g id="Groupe_32" data-name="Groupe 32" clip-path="url(#clip-path)">
    <path id="Tracé_17" data-name="Tracé 17" d="M71.987,386.253a1.345,1.345,0,0,0-1.123,2.444c4.439,2.04,6.883,4.422,6.883,6.706,0,2.846-3.916,5.884-10.476,8.128-7.206,2.464-16.813,3.821-27.052,3.821s-19.847-1.357-27.052-3.821c-6.56-2.243-10.476-5.282-10.476-8.128,0-2.284,2.444-4.666,6.883-6.706a1.345,1.345,0,1,0-1.123-2.444C2.922,388.794,0,391.957,0,395.4c0,4.171,4.367,7.961,12.3,10.673,7.478,2.557,17.395,3.966,27.923,3.966s20.444-1.408,27.923-3.966c7.929-2.712,12.3-6.5,12.3-10.673,0-3.445-2.922-6.609-8.449-9.15" transform="translate(0 -321.951)" fill="#fff"/>
    <path id="Tracé_18" data-name="Tracé 18" d="M134.624,436.758a46.911,46.911,0,0,0,14.616-2.081c5.606-1.917,6.783-4.387,6.783-6.122a1.345,1.345,0,0,0-2.689,0c0,2.248-7.288,5.513-18.709,5.513s-18.71-3.265-18.71-5.513a1.345,1.345,0,0,0-2.689,0c0,1.735,1.177,4.2,6.783,6.122a46.912,46.912,0,0,0,14.616,2.081" transform="translate(-94.406 -356.204)" fill="#fff"/>
    <path id="Tracé_19" data-name="Tracé 19" d="M111.649,306c-.08-.068-8.053-6.88-10.241-15.346a1.345,1.345,0,1,0-2.6.673c2.4,9.287,10.755,16.428,11.11,16.728A1.345,1.345,0,0,0,111.649,306" transform="translate(-82.346 -241.502)" fill="#fff"/>
    <path id="Tracé_20" data-name="Tracé 20" d="M248.231,23.292a7,7,0,0,1-2.466,4.348,1.345,1.345,0,1,0,1.575,2.18,9.627,9.627,0,0,0,3.551-6.125c.417-3.041-.689-6.236-3.287-9.5-2.11-2.647-3.029-5.142-2.731-7.416a6.993,6.993,0,0,1,2.472-4.352,1.345,1.345,0,0,0-1.58-2.176,9.626,9.626,0,0,0-3.551,6.126c-.417,3.041.689,6.236,3.287,9.5,2.11,2.647,3.029,5.142,2.731,7.417" transform="translate(-201.884 0)" fill="#fff"/>
    <path id="Tracé_21" data-name="Tracé 21" d="M193.206,100.3a4.974,4.974,0,0,1-1.737,3.081,1.345,1.345,0,1,0,1.575,2.18,7.643,7.643,0,0,0,2.822-4.86c.328-2.4-.532-4.9-2.558-7.439-1.537-1.929-2.211-3.733-2-5.362a4.97,4.97,0,0,1,1.744-3.086,1.345,1.345,0,0,0-1.582-2.175,7.643,7.643,0,0,0-2.822,4.86c-.328,2.4.532,4.9,2.558,7.44,1.538,1.929,2.211,3.733,2,5.362" transform="translate(-157.235 -68.687)" fill="#fff"/>
    <path id="Tracé_22" data-name="Tracé 22" d="M119.307,190.65c-2.5-2.118-6.528-1.791-9.243-1.231q.073-1.282.074-2.578c0-5.63-15.837-7.418-22.646-7.925a1.345,1.345,0,1,0-.2,2.682,74.6,74.6,0,0,1,15.077,2.439c4.167,1.26,5.079,2.452,5.079,2.8,0,.466-1.5,2.129-8.165,3.6a107.03,107.03,0,0,1-21.969,2,107.032,107.032,0,0,1-21.969-2c-6.665-1.471-8.165-3.134-8.165-3.6,0-.353.912-1.544,5.079-2.8A74.6,74.6,0,0,1,67.337,181.6a1.345,1.345,0,1,0-.2-2.682c-6.809.507-22.646,2.3-22.646,7.925a42.443,42.443,0,0,0,6.076,22.184,33.775,33.775,0,0,0,15.638,13.824,36.371,36.371,0,0,0,11.109,1.406c7.54,0,11.077-1.393,11.111-1.407A32.757,32.757,0,0,0,101.4,212.842c3.638-.221,8.132-2.175,12.183-5.325,4.382-3.407,7.241-7.467,7.649-10.862.394-3.281-.829-5.076-1.924-6m-31.92,29.717c-.029.012-3.34,1.2-10.072,1.2a35.554,35.554,0,0,1-10.07-1.2c-11-4.606-18.691-16.311-19.9-29.806a27.918,27.918,0,0,0,7.418,2.505,109.759,109.759,0,0,0,22.549,2.066,109.76,109.76,0,0,0,22.549-2.066,27.931,27.931,0,0,0,7.418-2.505c-1.206,13.493-8.9,25.2-19.895,29.8m31.174-24.033c-.319,2.657-2.859,6.128-6.629,9.06a24.535,24.535,0,0,1-8.327,4.359q.232-.362.458-.729a41.7,41.7,0,0,0,5.753-16.793c3.453-.862,6.377-.7,7.753.471.873.74,1.2,1.928.993,3.633" transform="translate(-37.096 -149.175)" fill="#fff"/>
  </g>
</svg>
