<svg xmlns="http://www.w3.org/2000/svg" width="23.53" height="22.934" viewBox="0 0 23.53 22.934">
  <path id="Icon_awesome-arrow-left" data-name="Icon awesome-arrow-left" d="M13.522,24.045l-1.166,1.166a1.255,1.255,0,0,1-1.78,0L.367,15.007a1.255,1.255,0,0,1,0-1.78L10.576,3.018a1.255,1.255,0,0,1,1.78,0l1.166,1.166a1.262,1.262,0,0,1-.021,1.8L7.173,12.013H22.266a1.257,1.257,0,0,1,1.26,1.26v1.681a1.257,1.257,0,0,1-1.26,1.26H7.173L13.5,22.243A1.253,1.253,0,0,1,13.522,24.045Z" transform="translate(0.004 -2.647)" fill="#fff" opacity="0.7"/>
</svg>
