<svg id="Icon_awesome-arrow-left" data-name="Icon awesome-arrow-left" xmlns="http://www.w3.org/2000/svg" width="23.53" height="22.934" viewBox="0 0 23.53 22.934">
  <path id="Icon_awesome-arrow-left-2" data-name="Icon awesome-arrow-left" d="M13.525,21.4,12.36,22.563a1.255,1.255,0,0,1-1.78,0L.37,12.36a1.255,1.255,0,0,1,0-1.78L10.579.37a1.255,1.255,0,0,1,1.78,0l1.166,1.166a1.262,1.262,0,0,1-.021,1.8L7.176,9.366H22.269a1.257,1.257,0,0,1,1.26,1.26v1.681a1.257,1.257,0,0,1-1.26,1.26H7.176L13.5,19.6A1.253,1.253,0,0,1,13.525,21.4Z" transform="translate(23.53 22.934) rotate(180)"/>
</svg>
